<!-- icon666.com - MILLIONS vector ICONS FREE --><svg version="1.1" id="Capa_1" xmlns="http://www.w3.org/2000/svg" xmlns:xlink="http://www.w3.org/1999/xlink" x="0px" y="0px" viewBox="0 0 120 120" style="enable-background:new 0 0 120 120;" xml:space="preserve"><g><path d="M114,0H43c-3.3,0-6,2.7-6,6v12c0,3.3,2.7,6,6,6h71c3.3,0,6-2.7,6-6V6C120,2.7,117.3,0,114,0z" fill="#000000" style="fill: rgb(255, 250, 250);"></path><path d="M114,48H43c-3.3,0-6,2.7-6,6v12c0,3.3,2.7,6,6,6h71c3.3,0,6-2.7,6-6V54C120,50.7,117.3,48,114,48z" fill="#000000" style="fill: rgb(255, 250, 250);"></path><path d="M114,96H43c-3.3,0-6,2.7-6,6v12c0,3.3,2.7,6,6,6h71c3.3,0,6-2.7,6-6v-12C120,98.7,117.3,96,114,96z" fill="#000000" style="fill: rgb(255, 250, 250);"></path><path d="M18,0H6C2.7,0,0,2.7,0,6v12c0,3.3,2.7,6,6,6h12c3.3,0,6-2.7,6-6V6C24,2.7,21.3,0,18,0z" fill="#000000" style="fill: rgb(255, 250, 250);"></path><path d="M18,48H6c-3.3,0-6,2.7-6,6v12c0,3.3,2.7,6,6,6h12c3.3,0,6-2.7,6-6V54C24,50.7,21.3,48,18,48z" fill="#000000" style="fill: rgb(255, 250, 250);"></path><path d="M18,96H6c-3.3,0-6,2.7-6,6v12c0,3.3,2.7,6,6,6h12c3.3,0,6-2.7,6-6v-12C24,98.7,21.3,96,18,96z" fill="#000000" style="fill: rgb(255, 250, 250);"></path></g></svg>